# File created by Blade
# Date/Time:  Thu Sep 25 19:26:26 2014
# Frame Rate: 120.000 fps
#------------------------------------------------------
:FULLY-SPECIFIED
:DEGREES
1226
root 1.273190 31.288001 -11.754158 24.126034 14.947155 2.246602
Spine 9.703951 5.737112 -13.917576
Head -29.818794 -11.493893 13.980015
LeftShoulder 0.881948 9.060825 28.003244
LeftArm 32.004683 5.565852 -49.161712
LeftForeArm 4.775133 -0.000000 18.450250
LeftHand -23.525571 0.000000 -3.054506
LeftHandThumb1 -26.253704 0.000000 33.147579
RightShoulder -11.057786 12.579476 -24.056673
RightArm -4.765729 -24.941746 79.647865
RightForeArm -26.514644 -0.000000 27.001629
RightHand -8.025813 -0.000000 -15.293082
RightHandThumb1 -24.326973 -0.000000 -32.862282
LeftUpLeg -44.047164 -6.109383 13.465898
LeftLeg 29.263034 -0.000000 -0.000000
LeftFoot -20.193723 2.002254 -21.587586
LeftToeBase 10.638084 -0.000000 -0.000000
RightUpLeg -23.246544 -25.880249 -14.971707
RightLeg 5.990005 -0.000000 -0.000000
RightFoot -2.955157 -10.532308 16.512570
RightToeBase 5.197406 -0.000000 -0.000000
1227
root 1.356654 31.263481 -11.631643 23.403154 14.491755 2.230454
Spine 9.310112 5.777529 -13.963775
Head -29.613042 -11.172707 14.171937
LeftShoulder 0.647424 9.297526 28.096031
LeftArm 31.524413 4.861261 -48.791811
LeftForeArm 4.375988 -0.000000 17.671002
LeftHand -23.408322 -0.000000 -3.658440
LeftHandThumb1 -26.253704 0.000000 33.147579
RightShoulder -11.223016 12.396039 -24.110829
RightArm -4.823460 -23.910283 79.024954
RightForeArm -26.024689 -0.000000 26.300632
RightHand -7.996160 0.000000 -15.126698
RightHandThumb1 -24.326973 -0.000000 -32.862282
LeftUpLeg -43.317361 -6.074618 13.170060
LeftLeg 30.031078 -0.000000 -0.000000
LeftFoot -20.849028 1.814779 -21.517568
LeftToeBase 10.772854 -0.000000 -0.000000
RightUpLeg -22.446933 -25.479941 -15.500290
RightLeg 6.065547 -0.000000 -0.000000
RightFoot -2.885770 -10.510782 16.281341
RightToeBase 5.144075 -0.000000 -0.000000
1228
root 1.445441 31.238123 -11.506274 22.707867 14.027819 2.236004
Spine 8.899620 5.807530 -14.021767
Head -29.420728 -10.893896 14.347640
LeftShoulder 0.359408 9.520316 28.157581
LeftArm 31.045044 4.141991 -48.372942
LeftForeArm 3.945602 -0.000000 16.943236
LeftHand -23.353297 -0.000000 -4.532989
LeftHandThumb1 -26.253704 0.000000 33.147579
RightShoulder -11.317553 12.420587 -24.243759
RightArm -5.242738 -22.775075 78.541989
RightForeArm -25.778516 0.000000 25.747699
RightHand -8.182551 -0.000000 -14.925750
RightHandThumb1 -24.326973 -0.000000 -32.862282
LeftUpLeg -42.588547 -5.933031 12.799792
LeftLeg 30.780305 -0.000000 -0.000000
LeftFoot -21.487694 1.657886 -21.304855
LeftToeBase 11.035004 -0.000000 -0.000000
RightUpLeg -21.695656 -25.104483 -16.030305
RightLeg 6.174523 -0.000000 -0.000000
RightFoot -2.803055 -10.433471 16.041606
RightToeBase 5.144053 -0.000000 -0.000000
1229
root 1.543338 31.213162 -11.379737 22.047261 13.538428 2.305352
Spine 8.454448 5.852023 -14.162364
Head -29.171886 -10.619105 14.603974
LeftShoulder 0.100836 9.724732 28.282106
LeftArm 30.551999 3.450510 -47.976523
LeftForeArm 3.759951 0.000000 16.262810
LeftHand -23.342383 -0.000000 -5.149889
LeftHandThumb1 -26.253704 0.000000 33.147579
RightShoulder -11.497902 12.282771 -24.308166
RightArm -5.408886 -21.698325 77.912556
RightForeArm -25.606166 -0.000000 25.131404
RightHand -8.314978 -0.000000 -15.051675
RightHandThumb1 -24.326973 -0.000000 -32.862282
LeftUpLeg -41.842988 -5.780876 12.351943
LeftLeg 31.463009 -0.000000 -0.000000
LeftFoot -22.053708 1.442150 -21.348440
LeftToeBase 11.076343 -0.000000 -0.000000
RightUpLeg -20.970629 -24.794708 -16.604376
RightLeg 6.262946 -0.000000 -0.000000
RightFoot -2.624475 -10.310744 15.686993
RightToeBase 4.892913 -0.000000 -0.000000
1230
root 1.643408 31.186476 -11.253167 21.419347 13.091289 2.387539
Spine 8.000984 5.826249 -14.271205
Head -28.922210 -10.345379 14.797184
LeftShoulder -0.192468 9.871087 28.345216
LeftArm 29.977418 2.749898 -47.524654
LeftForeArm 3.630531 0.000000 15.711526
LeftHand -23.375464 0.000000 -5.821251
LeftHandThumb1 -26.253704 0.000000 33.147579
RightShoulder -11.643016 12.151375 -24.423351
RightArm -5.645832 -20.585205 77.282890
RightForeArm -25.485901 -0.000000 24.611117
RightHand -8.387646 -0.000000 -15.227447
RightHandThumb1 -24.326973 -0.000000 -32.862282
LeftUpLeg -41.143374 -5.682021 11.925285
LeftLeg 32.147779 -0.000000 -0.000000
LeftFoot -22.666214 1.338395 -21.275511
LeftToeBase 11.203911 -0.000000 -0.000000
RightUpLeg -20.202482 -24.341776 -17.225912
RightLeg 6.267284 -0.000000 -0.000000
RightFoot -2.420850 -10.437318 15.369422
RightToeBase 4.590467 -0.000000 -0.000000
1231
root 1.747788 31.158363 -11.131954 20.804957 12.703291 2.482092
Spine 7.588171 5.762187 -14.339705
Head -28.722178 -10.053011 15.006466
LeftShoulder -0.456244 10.071029 28.440553
LeftArm 29.440314 1.983641 -47.082554
LeftForeArm 3.766027 0.000000 15.250781
LeftHand -23.564813 0.000000 -6.450240
LeftHandThumb1 -26.253704 0.000000 33.147579
RightShoulder -11.898190 12.116567 -24.551110
RightArm -5.933657 -19.986672 76.557988
RightForeArm -25.145436 0.000000 24.260796
RightHand -8.787305 -0.000000 -15.576802
RightHandThumb1 -24.326973 -0.000000 -32.862282
LeftUpLeg -40.504660 -5.587517 11.483043
LeftLeg 32.870746 -0.000000 -0.000000
LeftFoot -23.162323 1.254578 -21.110448
LeftToeBase 11.158132 -0.000000 -0.000000
RightUpLeg -19.516688 -24.073735 -17.803114
RightLeg 6.388917 -0.000000 -0.000000
RightFoot -2.178025 -10.446772 15.041031
RightToeBase 4.211355 -0.000000 -0.000000
